<?xml version="1.0" encoding="UTF-8" standalone="no"?>
<!-- Created with Inkscape (http://www.inkscape.org/) -->

<svg
   width="1354.6666mm"
   height="260.71188mm"
   preserveAspectRatio="none"
   viewBox="0 0 1354.6666 260.71188"
   version="1.1"
   id="svg1"
   xml:space="preserve"
   sodipodi:docname="drawing.svg"
   inkscape:version="1.4 (86a8ad7, 2024-10-11)"
   xmlns:inkscape="http://www.inkscape.org/namespaces/inkscape"
   xmlns:sodipodi="http://sodipodi.sourceforge.net/DTD/sodipodi-0.dtd"
   xmlns="http://www.w3.org/2000/svg"
   xmlns:svg="http://www.w3.org/2000/svg"><sodipodi:namedview
     id="namedview1"
     pagecolor="#ffffff"
     bordercolor="#000000"
     borderopacity="0.25"
     inkscape:showpageshadow="2"
     inkscape:pageopacity="0.0"
     inkscape:pagecheckerboard="0"
     inkscape:deskcolor="#d1d1d1"
     inkscape:document-units="mm"
     inkscape:zoom="0.13937161"
     inkscape:cx="3709.5073"
     inkscape:cy="1718.4274"
     inkscape:window-width="1920"
     inkscape:window-height="1129"
     inkscape:window-x="949"
     inkscape:window-y="1072"
     inkscape:window-maximized="1"
     inkscape:current-layer="layer1" /><defs
     id="defs1" /><g
     inkscape:label="Layer 1"
     inkscape:groupmode="layer"
     id="layer1"
     transform="translate(649.83608,79.306248)"><path
       style="fill:#000000;stroke-width:0.838492"
       d="M -649.83608,51.032189 V -79.306248 H 27.497227 704.83054 V 49.565184 178.43662 l -2.38125,-0.1158 c -1.30968,-0.0637 -6.58812,-0.23881 -11.72986,-0.38914 -5.14173,-0.15033 -13.47611,-0.40128 -18.52083,-0.55768 -5.155,-0.15983 -13.49846,-0.22145 -19.05,-0.14069 -5.43278,0.079 -21.46653,0.1975 -35.63055,0.26326 -24.37934,0.11322 -36.65241,-0.0534 -44.27361,-0.60106 -4.37807,-0.31461 -13.03478,-1.23632 -13.93473,-1.48367 -0.6472,-0.1779 -4.82552,-0.97159 -9.17222,-1.74231 -0.97014,-0.17201 -1.92264,-0.39219 -2.11666,-0.48928 -0.19403,-0.0971 -1.46403,-0.42104 -2.82223,-0.71988 -1.35819,-0.29886 -4.37444,-0.96925 -6.70277,-1.48976 -2.32834,-0.52052 -6.61459,-1.47594 -9.525,-2.12317 -2.91042,-0.64723 -6.24417,-1.45564 -7.40834,-1.79647 -4.16872,-1.22048 -8.49078,-2.3543 -9.87777,-2.59126 -0.77612,-0.13261 -3.95112,-0.38248 -7.05556,-0.55529 -5.44905,-0.3033 -5.76046,-0.35081 -8.99583,-1.37233 -1.84327,-0.582 -3.90702,-1.3635 -4.58611,-1.73669 -0.6791,-0.37318 -1.71153,-0.85182 -2.2943,-1.06363 -1.1495,-0.41778 -7.64679,-4.80738 -8.90494,-6.0162 -0.42594,-0.40925 -1.30496,-1.24778 -1.95337,-1.8634 -2.07401,-1.96916 -6.84572,-7.443 -7.78087,-8.9258 -0.59365,-0.9413 -1.69208,-2.28123 -2.03325,-2.48027 -0.11691,-0.0682 -0.4962,-0.73788 -0.84285,-1.48817 -0.34666,-0.75028 -1.06374,-1.97802 -1.59352,-2.72831 -0.52977,-0.75027 -1.08505,-1.64318 -1.23395,-1.98421 -0.1489,-0.34104 -0.69925,-1.06652 -1.22301,-1.61218 -0.52376,-0.54566 -1.40037,-1.57807 -1.94802,-2.29426 -0.54765,-0.71617 -1.11073,-1.30214 -1.25129,-1.30214 -0.14056,0 -0.35599,-0.19532 -0.47874,-0.43405 -0.24989,-0.48602 -0.44457,-0.71841 -2.65116,-3.16491 -0.85652,-0.94964 -1.77174,-1.87738 -2.03381,-2.06163 -0.26207,-0.18426 -0.89158,-0.71763 -1.39891,-1.18527 -0.59749,-0.55075 -1.06162,-0.77414 -1.31758,-0.63416 -0.21733,0.11885 -1.38186,0.34857 -2.58784,0.51048 -2.71342,0.36431 -3.43278,0.14701 -5.92601,-1.7901 -2.07544,-1.6125 -5.81603,-5.19514 -5.81603,-5.57042 0,-0.14422 -0.12545,-0.29943 -0.27878,-0.3449 -0.31724,-0.0941 -2.19066,-2.82194 -2.19066,-3.1898 0,-0.13268 -0.12,-0.24124 -0.26666,-0.24124 -0.14667,0 -0.4867,-0.36274 -0.75563,-0.80609 -1.2181,-2.0081 -1.84271,-2.86684 -2.84139,-3.90644 -0.5897,-0.61387 -1.07287,-1.20895 -1.0737,-1.32241 -0.002,-0.22317 -1.96474,-1.98794 -3.76871,-3.38795 -0.61675,-0.47864 -1.76579,-1.37252 -2.55341,-1.98638 -0.78763,-0.613871 -1.86891,-1.729996 -2.40285,-2.480274 -0.53393,-0.750285 -1.05615,-1.419958 -1.16049,-1.488165 -0.10433,-0.06816 -0.48288,-0.626269 -0.84123,-1.240133 -0.35834,-0.613871 -1.52755,-2.399668 -2.59825,-3.968446 -1.90554,-2.791999 -1.95431,-2.836577 -2.30645,-2.108232 -0.19786,0.409242 -0.63653,1.091533 -0.97482,1.516195 -1.09254,1.371488 -1.30607,1.673573 -2.78871,3.94515 -1.84408,2.825353 -4.01741,4.033518 -5.44731,3.028195 -0.96585,-0.679057 -2.33282,-3.932526 -3.20221,-7.621449 -0.43315,-1.83788 -1.05947,-4.04581 -2.31168,-8.149118 -0.18132,-0.594187 -0.83769,-1.766113 -1.4586,-2.604289 -0.6209,-0.838169 -1.51433,-2.072432 -1.98539,-2.742794 -0.47106,-0.670362 -1.39346,-1.809025 -2.04977,-2.530365 -0.65631,-0.721339 -1.1933,-1.389672 -1.1933,-1.485181 0,-0.172411 -1.61152,-1.772195 -3.03585,-3.013752 l -0.7428,-0.64749 -0.91174,1.276228 c -0.50146,0.701929 -1.32815,2.089578 -1.83711,3.083671 -1.96025,3.828783 -8.06228,9.428307 -10.64573,9.769054 -1.08182,0.142693 -3.99343,1.99394 -3.99343,2.539105 0,0.12026 -0.55409,0.708722 -1.2313,1.307681 -0.67721,0.598959 -1.23284,1.173425 -1.23472,1.276584 -0.007,0.379744 -4.0396,4.913326 -4.84171,5.443116 -1.13098,0.747006 -4.75559,0.92971 -6.5523,0.330281 -0.68818,-0.229606 -1.93902,-0.453623 -2.77964,-0.497838 -0.84061,-0.04423 -1.77545,-0.151114 -2.07741,-0.237566 -0.84487,-0.24189 -4.06579,-2.914061 -5.1412,-4.26529 -0.9699,-1.218654 -1.32317,-1.722422 -3.10841,-4.43265 -1.52652,-2.317465 -4.11583,-7.017256 -4.85103,-8.804976 -0.36431,-0.885867 -1.05102,-1.828088 -3.88692,-5.333209 -0.88269,-1.090981 -1.71353,-2.310529 -1.84632,-2.710115 -0.13278,-0.399571 -0.83357,-1.130529 -1.55731,-1.624337 -1.64236,-1.120593 -3.29345,-3.327598 -4.70092,-6.283731 -0.59669,-1.253242 -1.19451,-2.390239 -1.32848,-2.526656 -0.13396,-0.136417 -0.42374,-0.694478 -0.64394,-1.240138 -1.14066,-2.826602 -2.27544,-5.525562 -2.55494,-6.07667 -0.17296,-0.341038 -0.4064,-1.065805 -0.51876,-1.6106 -0.11235,-0.544788 -0.6721,-2.330584 -1.24388,-3.968435 -0.57178,-1.637851 -1.28918,-4.038224 -1.59423,-5.334172 -0.30505,-1.29594 -0.69024,-2.691099 -0.85598,-3.100342 -0.66742,-1.647961 -1.77082,-5.282046 -1.95799,-6.448713 -0.20747,-1.293199 -1.27848,-4.461254 -2.72512,-8.060896 -1.02627,-2.553656 -3.33335,-5.973016 -4.9234,-7.297038 -2.85928,-2.380904 -4.62328,-3.5917179 -5.33673,-3.6631286 -1.30707,-0.1308272 -2.65964,-2.5467445 -4.8338,-8.63400305 -0.60904,-1.70519141 -1.26497,-3.49098925 -1.45764,-3.96843725 -0.19266,-0.4774549 -0.50382,-1.4722498 -0.69146,-2.2106486 -0.36058,-1.4189928 -1.56583,-4.3489111 -2.05336,-4.9916855 -0.15918,-0.209873 -0.40757,-0.873262 -0.55198,-1.474197 -0.14441,-0.600943 -0.60043,-1.627762 -1.01339,-2.281835 -0.8687,-1.375888 -1.09903,-1.378412 -3.92185,-0.04296 -0.96755,0.457727 -1.88908,0.832231 -2.04783,0.832231 -0.15876,0 -1.19275,0.430757 -2.29777,0.95723 -1.10501,0.52648 -2.34412,1.031305 -2.75358,1.121847 -0.78361,0.173264 -2.43216,1.3407543 -3.47839,2.4633818 -0.51556,0.5532104 -0.87995,0.6661232 -2.14976,0.6661232 -2.50885,0 -3.25863,-0.9389849 -7.4269,-9.301034 -0.87361,-1.752578 -2.54324,-4.869519 -3.58718,-6.696742 -0.31175,-0.54566 -0.85322,-1.288369 -1.20326,-1.650464 -0.35003,-0.362103 -0.63643,-0.782763 -0.63643,-0.934809 0,-0.329234 -4.88551,-7.681097 -5.28691,-7.955892 -0.0996,-0.0682 -0.64412,-0.765784 -1.20997,-1.550171 -0.56585,-0.784387 -1.15047,-1.426164 -1.29914,-1.426164 -0.14868,0 -0.38341,-0.251122 -0.52162,-0.558062 -0.13821,-0.306932 -1.37975,-1.339348 -2.75898,-2.294251 -1.37923,-0.954903 -2.82107,-2.154741 -3.20409,-2.666295 -0.38302,-0.511561 -0.79908,-0.930105 -0.92457,-0.930105 -0.12549,0 -0.92282,-0.510064 -1.77186,-1.133483 -1.56648,-1.150216 -3.04794,-1.842845 -3.94164,-1.842845 -0.27099,0 -0.85879,0.223224 -1.30622,0.496051 -0.91437,0.557562 -1.49793,0.613583 -2.49264,0.239304 -0.37593,-0.141451 -0.68236,-0.15561 -0.68236,-0.0315 0,0.306448 -1.26751,2.193509 -2.22003,3.305175 -3.21189,3.74851 -7.39306,5.981559 -10.83275,5.785473 -1.85187,-0.105567 -4.71117,0.407506 -7.1874,1.289719 -1.35906,0.484197 -2.05593,0.588842 -3.12271,0.468912 -1.47188,-0.165482 -4.30382,-1.117438 -5.41878,-1.821535 -3.37417,-2.130788 -3.17664,-2.064881 -5.72337,-1.909538 -3.53841,0.215828 -6.90082,0.599318 -10.8269,1.234823 -1.94028,0.314068 -4.24216,0.63741 -5.11528,0.71853 -2.77146,0.257492 -3.92122,0.401045 -10.05417,1.255304 -10.83492,1.509189 -13.78958,1.742728 -22.04861,1.742728 -8.45382,0 -10.66135,-0.186025 -23.91371,-2.015161 -4.32428,-0.59685 -8.23201,-1.085181 -8.68384,-1.085181 -0.45183,0 -2.62879,-0.288449 -4.83768,-0.640989 -5.61697,-0.896478 -12.1493,-1.419182 -13.13501,-1.051034 -0.41741,0.155892 -1.64436,0.823597 -2.72657,1.483788 -2.70602,1.65078 -3.48773,1.623964 -6.58247,-0.22582 l -2.386,-1.426157 -2.58478,0.06405 c -2.762996,0.06848 -6.508539,0.483079 -11.349938,1.256322 -1.649236,0.263406 -4.347986,0.614955 -5.997222,0.78121 -1.649236,0.166261 -5.856111,0.637508 -9.348611,1.047223 -3.4925,0.409714 -7.699375,0.836042 -9.348611,0.947387 -1.649236,0.111345 -5.295328,0.3918 -8.102426,0.623222 -6.585275,0.542911 -15.471557,0.425287 -18.355907,-0.24296 -2.160134,-0.500466 -5.514316,-1.510904 -10.673625,-3.215414 -1.892925,-0.625373 -3.601218,-1.13704 -3.796206,-1.13704 -0.194988,0 -1.027482,-0.217326 -1.849985,-0.482946 -1.528163,-0.493506 -5.5009332,-1.427253 -6.8491192,-1.609798 -0.412275,-0.05582 -2.55136,-0.486504 -4.753522,-0.957075 -2.20216156,-0.470572 -4.9564302,-1.027628 -6.1205968,-1.237903 -3.4193076,-0.617598 -8.502369,-1.64877 -13.229166,-2.683724 -2.425348,-0.531043 -4.729147,-0.965512 -5.119554,-0.965484 -0.390407,2.8e-5 -1.977907,-0.284202 -3.527777,-0.631617 -1.549871,-0.347415 -4.087947,-0.85847 -5.640169,-1.13569 -3.744445,-0.668725 -10.04407,-2.379063 -10.971357,-2.978698 -0.659753,-0.426636 -0.789916,-0.437435 -1.189723,-0.09875 -0.246907,0.20917 -0.884463,0.380304 -1.416791,0.380304 -0.859305,0 -1.052311,-0.162824 -1.720693,-1.451621 -0.414053,-0.798393 -0.752824,-1.573091 -0.752824,-1.721552 0,-1.072407 -2.132529,-0.354313 -4.902091,1.65071 -3.447195,2.49559 -4.894031,3.01063 -8.457393,3.01063 -3.133391,0 -6.118304,-0.556205 -8.751946,-1.630827 l -1.47393,-0.60142 h -12.861191 -12.861191 l -0.518893,0.558062 c -0.285391,0.306932 -0.642771,0.833391 -0.794177,1.169901 -0.343363,0.763141 -3.020475,3.656021 -5.057245,5.464831 -1.79879,1.597467 -2.75524,1.957818 -5.23681,1.973033 -1.70758,0.01047 -1.90398,-0.054 -3.06251,-1.005616 -0.68086,-0.559235 -1.68381,-1.647462 -2.22879,-2.418265 -0.54497,-0.770805 -1.07336,-1.457275 -1.17419,-1.52548 -0.10084,-0.0682 -0.47975,-0.521699 -0.84204,-1.00776 -1.3784,-1.849341 -1.41614,-1.862461 -2.92712,-1.017299 -0.74047,0.414184 -2.38381,1.025245 -3.65186,1.357916 -5.07514,1.331432 -6.65592,2.094347 -8.57726,4.139529 -0.44854,0.477455 -1.27903,1.355702 -1.84553,1.951666 -0.56649,0.595964 -1.50624,1.61768 -2.08833,2.270481 -0.87053,0.976304 -4.80791,4.912695 -8.11625,8.11423 -1.99428,1.929899 -7.89428,7.002107 -9.08727,7.81229 -2.08548,1.416285 -7.78042,2.623717 -13.84092,2.93453 -2.52236,0.129358 -6.96736,0.417708 -9.87778,0.640778 -6.56541,0.503209 -17.32572,0.365048 -20.10833,-0.258188 -3.10567,-0.69559 -6.92398,-3.270514 -12.17757,-8.212098 -1.45028,-1.364153 -2.84433,-2.633756 -3.0979,-2.821342 -0.25356,-0.187587 -0.77377,-0.801452 -1.15601,-1.364153 -1.29177,-1.901601 -3.07529,-3.362996 -4.64226,-3.803799 -0.81349,-0.22885 -2.13407,-0.649223 -2.93464,-0.934177 -0.98313,-0.349939 -1.56066,-0.434912 -1.77934,-0.261809 -2.50604,1.983712 -4.022,3.326253 -4.022,3.561894 0,0.159941 -0.1213,0.290796 -0.26956,0.290796 -0.36674,0 -1.41422,1.743783 -2.00436,3.336708 -0.26641,0.719114 -0.81548,1.763784 -1.22017,2.321495 -0.40469,0.557718 -1.05941,1.60551 -1.45494,2.328427 -0.39552,0.722918 -1.09159,1.816656 -1.54681,2.430521 -0.45522,0.613871 -1.02823,1.556857 -1.27337,2.095535 -0.24513,0.538679 -0.86672,1.48738 -1.38131,2.108233 -0.51459,0.620853 -1.20712,1.631081 -1.53894,2.244945 -0.33183,0.613872 -2.64996,3.962243 -5.15138,7.44083 -6.32702,8.7985919 -6.87808,9.53804644 -7.17791,9.63173007 -0.14552,0.0454865 -0.26459,0.17334186 -0.26459,0.284153 0,0.22337251 -4.96942,6.47126833 -6.46099,8.12318763 -0.52103,0.5770519 -0.94734,1.1446611 -0.94734,1.2613501 0,0.116695 -1.19062,1.5214152 -2.64583,3.1216022 -1.45521,1.600195 -2.64584,2.996956 -2.64584,3.103921 0,0.106966 -0.43967,0.629775 -0.97705,1.161803 -0.53738,0.532027 -2.0686,2.195054 -3.40272,3.695617 -1.33411,1.50057 -2.53308,2.784108 -2.66436,2.852321 -0.13128,0.0682 -1.00099,0.961103 -1.93268,1.984218 -0.93169,1.023115 -1.83305,1.897411 -2.00303,1.942878 -0.16997,0.04549 -0.30904,0.21632 -0.30904,0.379665 0,0.163344 -1.12845,1.124104 -2.50766,2.13502 -2.415,1.770113 -5.95901,5.052444 -5.95901,5.519023 0,0.512404 -3.33423,5.080504 -4.16855,5.71115 -1.2561,0.949483 -3.23843,0.935674 -5.42163,-0.03775 -0.88794,-0.395905 -1.71976,-0.839655 -1.8485,-0.986105 -0.35212,-0.400567 -3.76809,-1.947117 -5.28495,-2.392716 l -1.33398,-0.39187 -3.05383,2.059243 c -1.67961,1.132583 -4.72071,3.089501 -6.758,4.348714 -7.75595,4.79379 -13.86306,9.943258 -17.26649,14.558947 -0.49586,0.672491 -1.0864,1.264565 -1.3123,1.315732 -0.2259,0.0512 -0.93108,-0.44324 -1.56706,-1.098682 -0.63597,-0.65545 -2.38647,-2.059684 -3.89,-3.120532 -1.50352,-1.060848 -2.83311,-2.149067 -2.95463,-2.418266 -0.12153,-0.269198 -0.36901,-0.489455 -0.54996,-0.489455 -0.18095,0 -0.32901,-0.158114 -0.32901,-0.351374 0,-0.193253 -0.12022,-0.388573 -0.26715,-0.434048 -0.14693,-0.04549 -1.51133,-1.402069 -3.03199,-3.014666 -3.41907,-3.625765 -6.06624,-5.568383 -8.8727,-6.511193 -1.83196,-0.615439 -2.62706,-0.723825 -5.92941,-0.808299 -2.98863,-0.07645 -4.15259,-0.0064 -5.37986,0.322949 -0.86136,0.231282 -1.56611,0.495643 -1.56611,0.587478 0,0.09183 -0.46643,0.312121 -1.03651,0.489534 -1.42688,0.444058 -4.95332,3.18149 -6.00045,4.6579 -0.47484,0.669513 -1.14048,1.504619 -1.4792,1.855796 -0.56125,0.581896 -4.18639,9.213629 -4.18194,9.957515 0.003,0.446178 -2.04757,3.944044 -2.63135,4.489284 -0.44784,0.41827 -0.56198,0.423186 -1.54311,0.06642 l -1.05951,-0.385204 -0.99993,1.145237 c -0.54997,0.629881 -1.2754,1.437067 -1.61207,1.793741 -0.33666,0.356675 -0.76379,0.87172 -0.94917,1.144555 -0.18538,0.272829 -0.6655,0.830891 -1.06695,1.240133 -0.40145,0.40925 -0.89663,1.190534 -1.1004,1.736191 -0.20377,0.545664 -0.65921,1.438559 -1.01209,1.984223 -0.6863,1.061246 -1.4959,2.780238 -2.16107,4.588505 -0.2258,0.613864 -0.53645,1.339354 -0.69031,1.612175 -1.03553,1.83616 -1.53125,2.912243 -1.9424,4.216479 -0.25802,0.818485 -0.95675,2.659848 -1.55272,4.091925 -0.59598,1.432076 -1.0836,2.77277 -1.0836,2.97933 0,0.206575 -0.38442,1.227151 -0.85426,2.267957 -0.46985,1.040813 -1.19656,3.048484 -1.61491,4.46149 -0.41835,1.413006 -1.0027,3.350394 -1.29856,4.305301 -0.29585,0.95491 -1.06564,3.52198 -1.71064,5.70463 -0.645,2.18265 -1.67313,5.53102 -2.28474,7.44082 -2.81035,8.77557 -3.21563,10.0653 -3.85802,12.27737 -0.37634,1.29594 -1.17457,3.69561 -1.77384,5.33259 -0.59927,1.63697 -1.30987,3.5902 -1.57912,4.34048 -0.26925,0.75028 -0.799,2.14544 -1.17721,3.10034 -0.37822,0.95491 -0.8787,2.35006 -1.11219,3.10035 -0.23349,0.75028 -0.56432,1.58737 -0.73517,1.8602 -0.47393,0.75682 -2.11027,4.57443 -2.10515,4.91135 0.002,0.16347 -0.56512,1.58077 -1.26136,3.14955 -3.49907,7.88423 -4.56778,10.15855 -5.36124,11.40926 -0.47598,0.75028 -1.19062,1.97801 -1.58808,2.72831 -0.39746,0.75027 -1.25367,1.92071 -1.90269,2.60097 -0.64902,0.68025 -1.18004,1.3327 -1.18004,1.44987 0,0.11719 -0.31272,0.52183 -0.69494,0.89922 -0.38222,0.37739 -1.39423,1.62236 -2.24891,2.76659 -1.54939,2.07429 -1.55801,2.08036 -2.92103,2.05948 -0.75188,-0.0115 -2.52654,-0.38092 -3.94369,-0.82091 -2.35259,-0.73042 -2.69001,-0.77416 -3.88056,-0.50304 -1.33898,0.30492 -6.28393,2.06361 -9.41781,3.34946 -1.93384,0.79348 -2.41938,0.81347 -13.93472,0.57384 -3.77275,-0.0785 -4.74095,-0.0157 -6.70278,0.43513 -3.78282,0.86922 -9.22587,1.57498 -12.14685,1.57498 -1.2256,0 -1.9604,0.16186 -2.81485,0.62006 -1.47917,0.79322 -4.0883,0.89175 -4.0883,0.15438 0,-0.75759 -0.75615,-1.03126 -1.76493,-0.63873 -1.97045,0.76672 -3.82542,0.27715 -6.39524,-1.68787 -0.31649,-0.24201 -1.3173,-0.71734 -2.22402,-1.05629 -2.73858,-1.02375 -6.19004,-3.12064 -10.79838,-6.56038 -5.55949,-4.14972 -8.44804,-5.6797 -14.05044,-7.44208 -4.11918,-1.2958 -5.72601,-1.57023 -9.0406,-1.54398 -2.09717,0.0166 -3.72853,0.2202 -6.35,0.79248 -1.94028,0.42357 -4.12845,0.87741 -4.86261,1.00851 -1.47546,0.26349 -2.51269,0.63616 -3.54557,1.27388 -0.37565,0.23194 -1.13779,0.48307 -1.69366,0.55807 -0.55586,0.075 -1.48854,0.20128 -2.07262,0.28063 -0.58408,0.0794 -1.25877,0.27835 -1.49931,0.44221 -0.99616,0.67862 -2.70631,1.39773 -3.32397,1.39773 -0.36358,0 -1.82045,0.39064 -3.23748,0.86809 -2.15071,0.72466 -2.96516,0.868 -4.92894,0.86746 -2.87853,-7e-4 -6.47863,0.54726 -9.76084,1.48593 -4.58035,1.30992 -7.40172,1.46926 -12.17083,0.68742 -1.26118,-0.20676 -3.72181,-0.4574 -5.46806,-0.55698 -3.95997,-0.22581 -8.54392,-1.14225 -11.09984,-2.21912 -1.07411,-0.45255 -2.58793,-1.02626 -3.36404,-1.27491 -0.77612,-0.24867 -1.49049,-0.51524 -1.5875,-0.59239 -0.20718,-0.16477 -2.55454,-0.97305 -5.29167,-1.82211 -2.0083,-0.62298 -6.39436,-1.41183 -7.84988,-1.41183 -0.45729,0 -1.5372,-0.31366 -2.3998,-0.69703 -1.51691,-0.67417 -4.72129,-1.53522 -5.71328,-1.53522 -0.26651,0 -0.86784,-0.25112 -1.33631,-0.55806 -1.01619,-0.6658 -2.41538,-0.70088 -8.45351,-0.21192 -4.19268,0.33952 -7.0539,0.99228 -8.66422,1.97669 l -0.86078,0.52621 v 9.05463 c 0,5.87108 -0.12403,9.05465 -0.35278,9.05465 -0.23473,0 -0.35277,-43.61149 -0.35277,-130.338443 z"
       id="path1" /></g></svg>
